<svg width="132" height="132" viewBox="0 0 132 132" fill="none" xmlns="http://www.w3.org/2000/svg">
<path d="M115.368 48.2876L115.295 49.1105L115.825 49.7446L129.395 66L115.825 82.2554L115.295 82.8895L115.368 83.7124L117.256 105.186L97.277 109.94L96.4285 110.142L95.9991 110.901L85.5571 129.365L66.8205 120.936L65.9972 120.566L65.1748 120.938L46.4406 129.424L36.0009 110.964L35.5715 110.205L34.723 110.003L14.7433 105.248L16.6324 83.7119L16.7045 82.8893L16.1753 82.2554L2.60338 65.9977L16.1776 49.679L16.7043 49.0458L16.6324 48.2252L14.7437 26.6935L34.7177 21.9984L35.5699 21.798L36.0009 21.036L46.443 2.57227L65.1795 11.0011L66 11.3702L66.8205 11.0011L85.5548 2.57327L95.9978 21.0965L96.4269 21.8577L97.277 22.06L117.256 26.8143L115.368 48.2876Z" stroke="#F8F200" stroke-width="4"/>
<path d="M54.1206 89.9002L48.287 84.0665C45.9535 81.7331 43.6201 81.7331 41.2866 84.0665L35.8772 89.4759L38.2107 91.8094L43.6201 86.4C44.3979 85.6222 45.1686 85.6151 45.9323 86.3788L45.9535 86.4L41.8806 90.4729C39.929 92.4246 39.9077 94.355 41.8169 96.2641C43.7968 98.244 45.7626 98.2582 47.7142 96.3066L54.1206 89.9002ZM44.1928 93.9731C43.811 93.5913 43.818 93.2024 44.214 92.8064L48.287 88.7335L49.4537 89.9002L45.3808 93.9731C44.9848 94.3691 44.5888 94.3691 44.1928 93.9731ZM65.8939 78.1269L62.5635 81.4573L55.3934 81.627L54.2267 82.7938L57.7268 86.2939L55.3934 88.6274L46.0596 79.2936L48.393 76.9601L51.8932 80.4603L53.0599 79.2936L53.2509 72.1023L56.5601 68.793L56.454 78.2329L65.8939 78.1269ZM64.2052 61.148L71.2055 68.1484L67.7053 71.6485C66.9275 72.4264 66.1497 72.4264 65.3719 71.6485L59.5382 65.8149L57.2048 68.1484L63.0384 73.982C65.3719 76.3154 67.7053 76.3154 70.0388 73.982L74.7057 69.3151L77.0391 71.6485L79.4787 69.209L74.8118 64.5421L73.539 65.8149L66.5386 58.8146L64.2052 61.148ZM87.1212 56.8996L84.7878 59.233L83.7907 58.236C83.3948 60.2442 82.6311 61.814 81.4997 62.9453C79.1663 65.2788 76.8328 65.2788 74.4994 62.9453L68.4536 56.8996L70.787 54.5661L76.8328 60.6119C77.5965 61.3755 78.3743 61.3755 79.1663 60.6119C80.5239 58.8582 80.9482 56.9491 80.4391 54.8843L75.454 49.8992L77.7874 47.5658L87.1212 56.8996ZM82.03 49.2628C80.0501 47.2829 80.036 45.3172 81.9876 43.3655L88.394 36.9592L97.7278 46.293L95.3944 48.6264L91.8942 45.1262L90.8547 46.1657L91.4275 52.5933L88.394 55.6268L87.8212 49.1992C85.8696 51.1508 83.9392 51.172 82.03 49.2628ZM88.394 41.6261L84.3211 45.699C83.9251 46.095 83.9392 46.5051 84.3635 46.9294C84.717 47.2829 85.0918 47.2617 85.4878 46.8657L89.5607 42.7928L88.394 41.6261Z" fill="#F8F200"/>
</svg>
